<mxfile host="app.diagrams.net" modified="2023-10-09T14:51:44.811Z" agent="Mozilla/5.0 (Windows NT 10.0; Win64; x64) AppleWebKit/537.36 (KHTML, like Gecko) Chrome/117.0.0.0 Safari/537.36" version="22.0.4" etag="pVLByDcLLWulBV99b6o1" type="github">
  <diagram name="Sayfa -1" id="rWq9GnPkWQj4Rva2wxD7">
    <mxGraphModel>
      <root>
        <mxCell id="0" />
        <mxCell id="1" parent="0" />
      </root>
    </mxGraphModel>
  </diagram>
</mxfile>
